# 3ds Max Wavefront OBJ Exporter v0.97b - (c)2007 guruware
# File Created: 01.01.2018 17:36:21

#
# object Sphere001
#

v  0.0000 1.1912 -0.0000
v  -0.0000 0.9637 -0.7001
v  -0.4115 0.9637 -0.5664
v  -0.6659 0.9637 -0.2164
v  -0.6659 0.9637 0.2164
v  -0.4115 0.9637 0.5664
v  0.0000 0.9637 0.7001
v  0.4115 0.9637 0.5664
v  0.6659 0.9637 0.2164
v  0.6659 0.9637 -0.2164
v  0.4115 0.9637 -0.5664
v  -0.0000 0.3681 -1.1329
v  -0.6659 0.3681 -0.9165
v  -1.0774 0.3681 -0.3501
v  -1.0774 0.3681 0.3501
v  -0.6659 0.3681 0.9165
v  0.0000 0.3681 1.1329
v  0.6659 0.3681 0.9165
v  1.0774 0.3681 0.3501
v  1.0774 0.3681 -0.3501
v  0.6659 0.3681 -0.9165
v  -0.0000 -0.3681 -1.1329
v  -0.6659 -0.3681 -0.9165
v  -1.0774 -0.3681 -0.3501
v  -1.0774 -0.3681 0.3501
v  -0.6659 -0.3681 0.9165
v  0.0000 -0.3681 1.1329
v  0.6659 -0.3681 0.9165
v  1.0774 -0.3681 0.3501
v  1.0774 -0.3681 -0.3501
v  0.6659 -0.3681 -0.9165
v  -0.0000 -0.9637 -0.7001
v  -0.4115 -0.9637 -0.5664
v  -0.6659 -0.9637 -0.2164
v  -0.6659 -0.9637 0.2164
v  -0.4115 -0.9637 0.5664
v  0.0000 -0.9637 0.7001
v  0.4115 -0.9637 0.5664
v  0.6659 -0.9637 0.2164
v  0.6659 -0.9637 -0.2164
v  0.4115 -0.9637 -0.5664
v  0.0000 -1.1912 -0.0000
# 42 vertices

vn 0.0000 1.0000 0.0000
vn -0.0000 0.7804 -0.6252
vn -0.3675 0.7804 -0.5058
vn -0.5946 0.7804 -0.1932
vn -0.5946 0.7804 0.1932
vn -0.3675 0.7804 0.5058
vn -0.0000 0.7804 0.6252
vn 0.3675 0.7804 0.5058
vn 0.5946 0.7804 0.1932
vn 0.5946 0.7804 -0.1932
vn 0.3675 0.7804 -0.5058
vn -0.0000 0.2925 -0.9563
vn -0.5621 0.2925 -0.7736
vn -0.9095 0.2925 -0.2955
vn -0.9095 0.2925 0.2955
vn -0.5621 0.2925 0.7736
vn 0.0000 0.2925 0.9563
vn 0.5621 0.2925 0.7736
vn 0.9095 0.2925 0.2955
vn 0.9095 0.2925 -0.2955
vn 0.5621 0.2925 -0.7736
vn -0.0000 -0.2925 -0.9563
vn -0.5621 -0.2925 -0.7736
vn -0.9095 -0.2925 -0.2955
vn -0.9095 -0.2925 0.2955
vn -0.5621 -0.2925 0.7736
vn -0.0000 -0.2925 0.9563
vn 0.5621 -0.2925 0.7736
vn 0.9095 -0.2925 0.2955
vn 0.9095 -0.2925 -0.2955
vn 0.5621 -0.2925 -0.7736
vn -0.0000 -0.7804 -0.6252
vn -0.3675 -0.7804 -0.5058
vn -0.5946 -0.7804 -0.1932
vn -0.5946 -0.7804 0.1932
vn -0.3675 -0.7804 0.5058
vn -0.0000 -0.7804 0.6252
vn 0.3675 -0.7804 0.5058
vn 0.5946 -0.7804 0.1932
vn 0.5946 -0.7804 -0.1932
vn 0.3675 -0.7804 -0.5058
vn 0.0000 -1.0000 -0.0000
# 42 vertex normals

vt 0.0000 1.0000 0.0000
vt 0.0000 0.8000 0.0000
vt 0.1000 0.8000 0.0000
vt 0.1000 1.0000 0.0000
vt 0.2000 0.8000 0.0000
vt 0.2000 1.0000 0.0000
vt 0.3000 0.8000 0.0000
vt 0.3000 1.0000 0.0000
vt 0.4000 0.8000 0.0000
vt 0.4000 1.0000 0.0000
vt 0.5000 0.8000 0.0000
vt 0.5000 1.0000 0.0000
vt 0.6000 0.8000 0.0000
vt 0.6000 1.0000 0.0000
vt 0.7000 0.8000 0.0000
vt 0.7000 1.0000 0.0000
vt 0.8000 0.8000 0.0000
vt 0.8000 1.0000 0.0000
vt 0.9000 0.8000 0.0000
vt 0.9000 1.0000 0.0000
vt 1.0000 0.8000 0.0000
vt 0.0000 0.6000 0.0000
vt 0.1000 0.6000 0.0000
vt 0.2000 0.6000 0.0000
vt 0.3000 0.6000 0.0000
vt 0.4000 0.6000 0.0000
vt 0.5000 0.6000 0.0000
vt 0.6000 0.6000 0.0000
vt 0.7000 0.6000 0.0000
vt 0.8000 0.6000 0.0000
vt 0.9000 0.6000 0.0000
vt 1.0000 0.6000 0.0000
vt 0.0000 0.4000 0.0000
vt 0.1000 0.4000 0.0000
vt 0.2000 0.4000 0.0000
vt 0.3000 0.4000 0.0000
vt 0.4000 0.4000 0.0000
vt 0.5000 0.4000 0.0000
vt 0.6000 0.4000 0.0000
vt 0.7000 0.4000 0.0000
vt 0.8000 0.4000 0.0000
vt 0.9000 0.4000 0.0000
vt 1.0000 0.4000 0.0000
vt 0.0000 0.2000 0.0000
vt 0.1000 0.2000 0.0000
vt 0.2000 0.2000 0.0000
vt 0.3000 0.2000 0.0000
vt 0.4000 0.2000 0.0000
vt 0.5000 0.2000 0.0000
vt 0.6000 0.2000 0.0000
vt 0.7000 0.2000 0.0000
vt 0.8000 0.2000 0.0000
vt 0.9000 0.2000 0.0000
vt 1.0000 0.2000 0.0000
vt 0.0000 0.0000 0.0000
vt 0.1000 0.0000 0.0000
vt 0.2000 0.0000 0.0000
vt 0.3000 0.0000 0.0000
vt 0.4000 0.0000 0.0000
vt 0.5000 0.0000 0.0000
vt 0.6000 0.0000 0.0000
vt 0.7000 0.0000 0.0000
vt 0.8000 0.0000 0.0000
vt 0.9000 0.0000 0.0000
# 64 texture coords

o Sphere001
g Sphere001
f 1/1/1 2/2/2 3/3/3 
f 1/4/1 3/3/3 4/5/4 
f 1/6/1 4/5/4 5/7/5 
f 1/8/1 5/7/5 6/9/6 
f 1/10/1 6/9/6 7/11/7 
f 1/12/1 7/11/7 8/13/8 
f 1/14/1 8/13/8 9/15/9 
f 1/16/1 9/15/9 10/17/10 
f 1/18/1 10/17/10 11/19/11 
f 1/20/1 11/19/11 2/21/2 
f 2/2/2 12/22/12 13/23/13 
f 2/2/2 13/23/13 3/3/3 
f 3/3/3 13/23/13 14/24/14 
f 3/3/3 14/24/14 4/5/4 
f 4/5/4 14/24/14 15/25/15 
f 4/5/4 15/25/15 5/7/5 
f 5/7/5 15/25/15 16/26/16 
f 5/7/5 16/26/16 6/9/6 
f 6/9/6 16/26/16 17/27/17 
f 6/9/6 17/27/17 7/11/7 
f 7/11/7 17/27/17 18/28/18 
f 7/11/7 18/28/18 8/13/8 
f 8/13/8 18/28/18 19/29/19 
f 8/13/8 19/29/19 9/15/9 
f 9/15/9 19/29/19 20/30/20 
f 9/15/9 20/30/20 10/17/10 
f 10/17/10 20/30/20 21/31/21 
f 10/17/10 21/31/21 11/19/11 
f 11/19/11 21/31/21 12/32/12 
f 11/19/11 12/32/12 2/21/2 
f 12/22/12 22/33/22 23/34/23 
f 12/22/12 23/34/23 13/23/13 
f 13/23/13 23/34/23 24/35/24 
f 13/23/13 24/35/24 14/24/14 
f 14/24/14 24/35/24 25/36/25 
f 14/24/14 25/36/25 15/25/15 
f 15/25/15 25/36/25 26/37/26 
f 15/25/15 26/37/26 16/26/16 
f 16/26/16 26/37/26 27/38/27 
f 16/26/16 27/38/27 17/27/17 
f 17/27/17 27/38/27 28/39/28 
f 17/27/17 28/39/28 18/28/18 
f 18/28/18 28/39/28 29/40/29 
f 18/28/18 29/40/29 19/29/19 
f 19/29/19 29/40/29 30/41/30 
f 19/29/19 30/41/30 20/30/20 
f 20/30/20 30/41/30 31/42/31 
f 20/30/20 31/42/31 21/31/21 
f 21/31/21 31/42/31 22/43/22 
f 21/31/21 22/43/22 12/32/12 
f 22/33/22 32/44/32 33/45/33 
f 22/33/22 33/45/33 23/34/23 
f 23/34/23 33/45/33 34/46/34 
f 23/34/23 34/46/34 24/35/24 
f 24/35/24 34/46/34 35/47/35 
f 24/35/24 35/47/35 25/36/25 
f 25/36/25 35/47/35 36/48/36 
f 25/36/25 36/48/36 26/37/26 
f 26/37/26 36/48/36 37/49/37 
f 26/37/26 37/49/37 27/38/27 
f 27/38/27 37/49/37 38/50/38 
f 27/38/27 38/50/38 28/39/28 
f 28/39/28 38/50/38 39/51/39 
f 28/39/28 39/51/39 29/40/29 
f 29/40/29 39/51/39 40/52/40 
f 29/40/29 40/52/40 30/41/30 
f 30/41/30 40/52/40 41/53/41 
f 30/41/30 41/53/41 31/42/31 
f 31/42/31 41/53/41 32/54/32 
f 31/42/31 32/54/32 22/43/22 
f 42/55/42 33/45/33 32/44/32 
f 42/56/42 34/46/34 33/45/33 
f 42/57/42 35/47/35 34/46/34 
f 42/58/42 36/48/36 35/47/35 
f 42/59/42 37/49/37 36/48/36 
f 42/60/42 38/50/38 37/49/37 
f 42/61/42 39/51/39 38/50/38 
f 42/62/42 40/52/40 39/51/39 
f 42/63/42 41/53/41 40/52/40 
f 42/64/42 32/54/32 41/53/41 
# 80 faces

